<svg width="39" height="12" viewBox="0 0 39 12" fill="none" xmlns="http://www.w3.org/2000/svg">
<path d="M7.43018 1.3833H1.91504V4.45947H6.65381V5.74854H1.91504V11H0.464844V0.0942383H7.43018V1.3833ZM14.6079 11H13.2383V10.1284C13.1162 10.2114 12.9502 10.3286 12.7402 10.48C12.5352 10.6265 12.335 10.7437 12.1396 10.8315C11.9102 10.9438 11.6465 11.0366 11.3486 11.1099C11.0508 11.188 10.7017 11.2271 10.3013 11.2271C9.56396 11.2271 8.93896 10.9829 8.42627 10.4946C7.91357 10.0063 7.65723 9.38379 7.65723 8.62695C7.65723 8.00684 7.78906 7.50635 8.05273 7.12549C8.32129 6.73975 8.70215 6.43701 9.19531 6.21729C9.69336 5.99756 10.2915 5.84863 10.9897 5.77051C11.688 5.69238 12.4375 5.63379 13.2383 5.59473V5.38232C13.2383 5.06982 13.1821 4.81104 13.0698 4.60596C12.9624 4.40088 12.8062 4.23975 12.6011 4.12256C12.4058 4.01025 12.1714 3.93457 11.8979 3.89551C11.6245 3.85645 11.3389 3.83691 11.041 3.83691C10.6797 3.83691 10.2769 3.88574 9.83252 3.9834C9.38818 4.07617 8.9292 4.21289 8.45557 4.39355H8.38232V2.99463C8.65088 2.92139 9.03906 2.84082 9.54688 2.75293C10.0547 2.66504 10.5552 2.62109 11.0483 2.62109C11.6245 2.62109 12.125 2.66992 12.5498 2.76758C12.9795 2.86035 13.3506 3.02148 13.6631 3.25098C13.9707 3.47559 14.2051 3.76611 14.3662 4.12256C14.5273 4.479 14.6079 4.9209 14.6079 5.44824V11ZM13.2383 8.98584V6.70801C12.8184 6.73242 12.3228 6.76904 11.7515 6.81787C11.1851 6.8667 10.7358 6.9375 10.4038 7.03027C10.0083 7.14258 9.68848 7.31836 9.44434 7.55762C9.2002 7.79199 9.07812 8.1167 9.07812 8.53174C9.07812 9.00049 9.21973 9.35449 9.50293 9.59375C9.78613 9.82812 10.2183 9.94531 10.7993 9.94531C11.2827 9.94531 11.7246 9.85254 12.125 9.66699C12.5254 9.47656 12.8965 9.24951 13.2383 8.98584ZM21.5073 10.9268C21.2485 10.9951 20.9653 11.0513 20.6577 11.0952C20.355 11.1392 20.084 11.1611 19.8447 11.1611C19.0098 11.1611 18.375 10.9365 17.9404 10.4873C17.5059 10.0381 17.2886 9.31787 17.2886 8.32666V3.97607H16.3584V2.81885H17.2886V0.467773H18.6655V2.81885H21.5073V3.97607H18.6655V7.7041C18.6655 8.13379 18.6753 8.4707 18.6948 8.71484C18.7144 8.9541 18.7827 9.17871 18.8999 9.38867C19.0073 9.58398 19.1538 9.72803 19.3394 9.8208C19.5298 9.90869 19.8179 9.95264 20.2036 9.95264C20.4282 9.95264 20.6626 9.9209 20.9067 9.85742C21.1509 9.78906 21.3267 9.73291 21.4341 9.68896H21.5073V10.9268ZM30.0254 7.05225H23.9976C23.9976 7.55518 24.0732 7.99463 24.2246 8.37061C24.376 8.7417 24.5835 9.04688 24.8472 9.28613C25.1011 9.52051 25.4014 9.69629 25.748 9.81348C26.0996 9.93066 26.4854 9.98926 26.9053 9.98926C27.4619 9.98926 28.021 9.87939 28.5825 9.65967C29.1489 9.43506 29.5518 9.21533 29.791 9.00049H29.8643V10.502C29.4004 10.6973 28.9268 10.8608 28.4434 10.9927C27.96 11.1245 27.4521 11.1904 26.9199 11.1904C25.5625 11.1904 24.5029 10.8242 23.7412 10.0918C22.9795 9.35449 22.5986 8.30957 22.5986 6.95703C22.5986 5.61914 22.9624 4.55713 23.6899 3.771C24.4224 2.98486 25.3843 2.5918 26.5757 2.5918C27.6792 2.5918 28.5288 2.91406 29.1245 3.55859C29.7251 4.20312 30.0254 5.11865 30.0254 6.30518V7.05225ZM28.6851 5.99756C28.6802 5.2749 28.4971 4.71582 28.1357 4.32031C27.7793 3.9248 27.2349 3.72705 26.5024 3.72705C25.7651 3.72705 25.1768 3.94434 24.7373 4.37891C24.3027 4.81348 24.0562 5.35303 23.9976 5.99756H28.6851ZM38.1626 10.4873C37.7036 10.707 37.2666 10.8779 36.8516 11C36.4414 11.1221 36.0044 11.1831 35.5405 11.1831C34.9497 11.1831 34.4077 11.0977 33.9146 10.9268C33.4214 10.751 32.999 10.4873 32.6475 10.1357C32.291 9.78418 32.0151 9.33984 31.8198 8.80273C31.6245 8.26562 31.5269 7.63818 31.5269 6.92041C31.5269 5.58252 31.8931 4.53271 32.6255 3.771C33.3628 3.00928 34.3345 2.62842 35.5405 2.62842C36.0093 2.62842 36.4683 2.69434 36.9175 2.82617C37.3716 2.95801 37.7866 3.11914 38.1626 3.30957V4.84033H38.0894C37.6694 4.51318 37.2349 4.26172 36.7856 4.08594C36.3413 3.91016 35.9067 3.82227 35.4819 3.82227C34.7007 3.82227 34.083 4.08594 33.6289 4.61328C33.1797 5.13574 32.9551 5.90479 32.9551 6.92041C32.9551 7.90674 33.1748 8.66602 33.6143 9.19824C34.0586 9.72559 34.6812 9.98926 35.4819 9.98926C35.7603 9.98926 36.0435 9.95264 36.3315 9.87939C36.6196 9.80615 36.8784 9.71094 37.1079 9.59375C37.3081 9.49121 37.4961 9.38379 37.6719 9.27148C37.8477 9.1543 37.9868 9.0542 38.0894 8.97119H38.1626V10.4873Z" fill="black"/>
</svg>
